<?xml version="1.0" encoding="utf-8"?>
<!-- Generator: Adobe Illustrator 19.2.0, SVG Export Plug-In . SVG Version: 6.00 Build 0)  -->
<svg version="1.1" id="Layer_1" xmlns="http://www.w3.org/2000/svg" xmlns:xlink="http://www.w3.org/1999/xlink" x="0px" y="0px"
	 viewBox="0 0 334 94" style="enable-background:new 0 0 334 94;" xml:space="preserve">
<style type="text/css">
	.st0{fill:none;stroke:#FFFFFF;stroke-width:1.5;stroke-miterlimit:10;}
</style>
<g id="Swirl_2_">
	<path class="st0" d="M150.7,76.8c0.1-4.7-3.7-8.5-8.3-8.5c-5.8-0.1-10.6,4.6-10.6,10.4c-0.1,7.3,5.8,13.2,13,13.3
		c9.1,0.1,16.5-7.2,16.6-16.3c0.1-11.4-9-20.7-20.3-20.8c-29.2-0.3-29.6,36.7-58.8,36.4c-11.4-0.1-20.5-9.4-20.3-20.8
		c0.1-9.1,7.5-16.4,16.6-16.3c7.3,0.1,13.1,6,13,13.3C91.5,73.4,86.7,78,80.9,78c-4.7-0.1-8.4-3.9-8.3-8.5"/>
	<path class="st0" d="M167,60.1c0-21.5,27.2-21.5,27.2-42.9c0-8.3-6.8-15.1-15.1-15.1C172.4,2,167,7.4,167,14.1
		C167,7.4,161.6,2,154.9,2c-8.3,0-15.1,6.8-15.1,15.1C139.8,38.6,167,38.6,167,60.1z"/>
	<path class="st0" d="M119.8,31c0-6.2-5-11.2-11.2-11.2c-7.8,0-14,6.3-14,14c0,9.7,7.9,17.5,17.5,17.5c12.1,0,21.9-9.8,21.9-21.9
		C134,14.3,121.7,2,106.6,2c-39,0-39,49.4-77.9,49.4c-15.1,0-27.4-12.3-27.4-27.4C1.3,11.8,11.1,2,23.2,2c9.7,0,17.5,7.9,17.5,17.5
		c0,7.8-6.3,14-14,14c-6.2,0-11.2-5-11.2-11.2"/>
	<path class="st0" d="M183.3,76.8c-0.1-4.7,3.7-8.5,8.3-8.5c5.8-0.1,10.6,4.6,10.6,10.4c0.1,7.3-5.8,13.2-13,13.3
		c-9.1,0.1-16.5-7.2-16.6-16.3c-0.1-11.4,9-20.7,20.3-20.8c29.2-0.3,29.6,36.7,58.8,36.4c11.4-0.1,20.5-9.4,20.3-20.8
		c-0.1-9.1-7.5-16.4-16.6-16.3c-7.3,0.1-13.1,6-13,13.3c0.1,5.8,4.8,10.5,10.6,10.4c4.7-0.1,8.4-3.9,8.3-8.5"/>
	<path class="st0" d="M214.2,31c0-6.2,5-11.2,11.2-11.2c7.8,0,14,6.3,14,14c0,9.7-7.9,17.5-17.5,17.5c-12.1,0-21.9-9.8-21.9-21.9
		C200,14.3,212.3,2,227.4,2c39,0,39,49.4,77.9,49.4c15.1,0,27.4-12.3,27.4-27.4c0-12.1-9.8-21.9-21.9-21.9
		c-9.7,0-17.5,7.9-17.5,17.5c0,7.8,6.3,14,14,14c6.2,0,11.2-5,11.2-11.2"/>
</g>
</svg>
