<?xml version="1.0" encoding="utf-8"?>
<!-- Generator: Adobe Illustrator 19.2.0, SVG Export Plug-In . SVG Version: 6.00 Build 0)  -->
<svg version="1.1" id="Lieur_Logo" xmlns="http://www.w3.org/2000/svg" xmlns:xlink="http://www.w3.org/1999/xlink" x="0px" y="0px"
	 viewBox="0 0 258 146" style="enable-background:new 0 0 258 146;" xml:space="preserve">
<style type="text/css">
	.st0{fill:#FFFFFF;}
</style>
<path id="Lieur" class="st0" d="M111.5,121.7c-2.7,0.2-6.9,2.5-16.6,3.2c-17.7,1.4-40.4-12.6-56.8-19.3c6.7-19.2,34.5-75.9,44-90.9
	C92.7,0.2,54.2-1.8,53.8,6.3c-0.1,2.5,3.7,3.2,2.7,6.4c-5.3,17.6-21.3,65.6-30.8,89C5.7,97-2.1,118.5,3,126.8
	c3.5,5.7,11.5,7.6,18.3,4.5c6.2-2.8,10.2-8.9,12.3-14.3c21,6.1,58.7,28.3,72.1,27.3c9-0.7,12.2-8.5,11.7-14.8
	C117.1,125.1,114.9,121.4,111.5,121.7z M17,121.1c-2.7,2.5-6.9,2.6-7.1-1.7c-0.1-1.6,0-9.5,11.4-6.1C20.6,115.2,19,119.2,17,121.1z
	 M83.1,40.7c11.7-4.6,11-19.2,16.9-19.2c6.5,0.1,10.1,3.9,10,8.4c-0.1,6.4-7.4,14-23.3,13.8c-3.3,0-5.7-0.5-5.7-1.4
	C81,41.9,81.6,41.3,83.1,40.7z M184.2,98.4c0-9.4,7-21.5,14.8-32.7c1.1-1.6,1.6-3,1.6-4.2c0-6.6-14.1-7.5-14.1-7.5
	c-3,3.8-9.3,18.7-13.1,29.9c-5.9,10.4-12.8,17.8-16.7,17.8c-12,0,21.7-41.8,21.7-54.9c0-4-3.3-5.3-7.2-5.3c-4.2,0-9.3,1.5-11.8,2.7
	c-1.1,0.5-1.5,1.1-1.5,1.6c0,1.4,1.2,2.5,1.2,3.8c0,3.6-3,10.2-6.2,18.1c-5,6.2-11.8,14.6-14.4,17.6c-9.2,10.5-19.9,20.5-29.4,20.5
	c-3,0-4.4-1.8-4.4-4.8c0-1.8,0.1-3.7,0.4-5.6c11.8-6.1,38.2-24.4,39.2-30.9c1.8-11.5-10.7-19.4-17.5-19.4c-10.1,0-22.3,14-29.1,29.5
	c-3.6,4.5-7.2,8.7-8.9,10.7c-6.4,8.2-12.8,13.5-14.3,14.6c-0.4,0.3-0.7,0.4-1,0.4c-0.8,0-1.2-1-1.2-2.2c0-2.7,9-19.9,19-35
	c0.5-0.8,1-2,1-3.3c0-4.6-6.1-9.2-10.2-9.2c-2.3,0-5.3,0.7-6.6,3.8c-4.9,12.8-14.8,32-14.8,40.7c0,6.3,4.9,16.9,10.7,16.9
	c1.2,0,2.5-0.4,3.7-1.5c5.2-4.4,12.8-14.2,17.2-20.2c0.3-0.4,0.6-0.8,0.9-1.3c-0.4,2.4-0.6,4.7-0.6,6.9c0,10.4,13,18.2,18.2,18.2
	c8.6,0,21.7-10.9,31.2-23.8c1.8-2.5,3.7-5,5.4-7.5c-1.6,5.4-2.7,10.8-2.7,16c0,8.9,2.9,12.3,7,12.3c5.2,0,12.6-5.6,18.6-12.8
	c0.7,13.3,6.7,17.5,11.9,17.5c4,0,7.5-2.5,7.5-5.1c0-0.4-0.3-1-0.8-1.5C185.6,106.4,184.2,102.7,184.2,98.4z M130.7,62.2
	c0.4,0,1,0.1,1.4,0.3c-2.6,5.2-7.8,13.7-24.5,25C111.9,75.6,121.1,64.6,130.7,62.2z M256.5,55.8c0,1.6-9.1,4.2-9.3,12.8
	c-0.1,3.3,1.8,6,2.9,8.5c-4.6,2.3-7.9,3.1-10.2,3.1c-5.4,0.1-7.3-4.9-7.3-8.5c0-1.6,0.3-3,0.3-3c-3.6,1-12.7,8.1-21.2,29.4
	c-1.6,4.1-2.7,8.9-4,13.7c-0.5,1.9-1.8,2.7-3.3,2.7c-3.1,0-11.2-5.3-11.2-11.5c0-9.8,24.7-59.2,35.4-59.2c4.5,0,6,4.2,6,8.2
	c0,0.8,0,1.5-0.1,2.2c-6,6-10.9,13.8-15.2,23c10.5-14.8,22.3-29,28.8-29C252.5,48.3,256.5,54,256.5,55.8z"/>
</svg>
