<?xml version="1.0" encoding="utf-8"?>
<!-- Generator: Adobe Illustrator 19.0.0, SVG Export Plug-In . SVG Version: 6.00 Build 0)  -->
<svg version="1.1" id="Layer_1" xmlns="http://www.w3.org/2000/svg" xmlns:xlink="http://www.w3.org/1999/xlink" x="0px" y="0px"
	 width="443.9px" height="122px" viewBox="0 0 443.9 122" enable-background="new 0 0 443.9 122" xml:space="preserve">
<g>
	<path fill="#8DCEA5" d="M190.7-95.3C190.6-95.3,190.6-95.3,190.7-95.3c-1.8,0-3.5-0.7-4.7-2c-1.2-1.3-1.9-2.9-1.9-4.7
		c0-1.5,0.6-2.8,1.6-3.8c1-1,2.4-1.6,3.9-1.6c1.2,0,2.4,0.5,3.2,1.4c0.9,0.9,1.3,2,1.3,3.2c0,0.6-0.4,1-1,1c-0.6,0-1-0.5-1-1
		c0-1.4-1.1-2.6-2.5-2.6c-0.9,0-1.8,0.3-2.5,1c-0.7,0.6-1,1.5-1,2.4c0,1.2,0.5,2.4,1.3,3.3c0.9,0.9,2,1.4,3.2,1.4
		c1.6,0,3.1-0.6,4.2-1.7c1.1-1.1,1.8-2.6,1.8-4.2c0-2.1-0.8-4-2.2-5.5c-1.4-1.5-3.4-2.3-5.4-2.3c-5.7-0.1-8.6,3.5-11.7,7.3
		c-3.2,4-6.5,8.1-13.1,8.1c-0.1,0-0.1,0-0.2,0c-2.6,0-5-1.1-6.8-2.9c-1.8-1.9-2.8-4.3-2.8-6.9c0-2.1,0.9-4.1,2.4-5.6
		c1.5-1.5,3.5-2.3,5.7-2.3c1.8,0,3.4,0.7,4.6,2c1.2,1.3,1.9,2.9,1.9,4.7c0,1.5-0.6,2.8-1.6,3.8c-1,1-2.4,1.6-3.9,1.6
		c-1.2,0-2.4-0.5-3.2-1.4c-0.9-0.9-1.3-2-1.3-3.2c0-0.6,0.5-1,1-1c0.6,0,1,0.5,1,1c0,0.7,0.3,1.3,0.7,1.8c0.5,0.5,1.1,0.8,1.8,0.8
		c0,0,0,0,0,0c0.9,0,1.8-0.4,2.4-1c0.7-0.6,1-1.5,1-2.4c0-1.2-0.5-2.4-1.3-3.3c-0.9-0.9-2-1.4-3.2-1.4c-1.6,0-3.1,0.6-4.2,1.7
		c-1.1,1.1-1.8,2.6-1.8,4.2c0,2.1,0.8,4,2.2,5.5c1.4,1.5,3.4,2.3,5.4,2.3c5.7,0.1,8.6-3.5,11.7-7.3c3.2-4,6.5-8.1,13.1-8.1
		c0.1,0,0.1,0,0.2,0c2.6,0,5,1.1,6.8,2.9c1.8,1.9,2.8,4.3,2.8,6.9c0,2.1-0.9,4.1-2.4,5.6C194.7-96.1,192.8-95.3,190.7-95.3z"/>
</g>
<g id="Heart_1_">
	<path id="XMLID_2_" fill="#8DCEA5" d="M127.4-83.3h-2c0-6.9-4.4-10.4-9-14c-4.8-3.8-9.8-7.7-9.8-15.6c0-6.3,5.1-11.4,11.4-11.4
		c3.6,0,6.8,2.1,8.3,5.1c1.5-3,4.7-5.1,8.3-5.1c6.3,0,11.4,5.1,11.4,11.4c0,7.9-5,11.8-9.8,15.6C131.7-93.7,127.4-90.2,127.4-83.3z
		 M118-122.3c-5.2,0-9.4,4.2-9.4,9.4c0,6.9,4.4,10.4,9,14c3.5,2.8,7.1,5.6,8.8,9.9c1.7-4.4,5.3-7.2,8.8-9.9c4.6-3.6,9-7.1,9-14
		c0-5.2-4.2-9.4-9.4-9.4c-4,0-7.3,3.3-7.3,7.3h-2C125.4-119,122.1-122.3,118-122.3z"/>
</g>
<g id="Social_Icons_2_">
	<g id="Website_5_">
		<path id="XMLID_992_" fill="#21B573" d="M341.7-96.5c-1,0-1.9-0.4-2.6-1.1c-1.5-1.5-1.5-3.8,0-5.3l1.3-1.3
			c0.7-0.7,1.6-1.1,2.6-1.1h0.3c0.6,0,1,0.4,1,1c0,0,0,0,0,0.1l1.6-1.6c-0.6,0-1.1-0.4-1.1-1v-0.3c0-1,0.4-1.9,1.1-2.6l1.4-1.4
			c1.5-1.5,3.8-1.5,5.3,0c1.5,1.5,1.5,3.8,0,5.3l-1.3,1.3c-0.7,0.7-1.6,1.1-2.6,1.1h-0.3c-0.6,0-1-0.4-1-1c0,0,0-0.1,0-0.1l-1.6,1.6
			c0.6,0,1.1,0.4,1.1,1v0.3c0,1-0.4,1.9-1.1,2.6l-1.4,1.4C343.6-96.8,342.6-96.5,341.7-96.5z M343-103.3c-0.5,0-0.9,0.2-1.2,0.5
			l-1.3,1.3c-0.7,0.7-0.7,1.8,0,2.5c0.7,0.7,1.8,0.7,2.5,0l1.3-1.3c0.3-0.3,0.5-0.8,0.5-1.2v-0.3c0,0,0-0.1,0-0.1l-0.8,0.8
			c-0.4,0.4-1,0.4-1.4,0s-0.4-1,0-1.4l0.8-0.8c0,0,0,0-0.1,0H343z M348.3-107.8c0.3,0,0.5,0.1,0.7,0.3c0.4,0.4,0.4,1,0,1.4l-0.8,0.8
			c0,0,0.1,0,0.1,0h0.3c0.5,0,0.9-0.2,1.2-0.5l1.3-1.3c0.7-0.7,0.7-1.8,0-2.5c-0.7-0.7-1.8-0.7-2.5,0l-1.3,1.3
			c-0.3,0.3-0.5,0.8-0.5,1.2v0.3c0,0,0,0.1,0,0.1l0.8-0.8C347.8-107.7,348-107.8,348.3-107.8z"/>
	</g>
	<path id="Instagram_3_" fill="#21B573" d="M322.2-111.6H311c-1,0-1.7,0.8-1.7,1.7v11.2c0,1,0.8,1.7,1.7,1.7h11.2
		c1,0,1.7-0.8,1.7-1.7v-11.2C323.9-110.9,323.2-111.6,322.2-111.6z M319.8-109.3c0-0.3,0.2-0.5,0.5-0.5h1.4c0.3,0,0.5,0.2,0.5,0.5
		v1.4c0,0.3-0.2,0.5-0.5,0.5h-1.4c-0.3,0-0.5-0.2-0.5-0.5V-109.3z M316.6-107.1c1.6,0,2.8,1.3,2.8,2.8c0,1.6-1.3,2.8-2.8,2.8
		c-1.6,0-2.8-1.3-2.8-2.8C313.8-105.8,315.1-107.1,316.6-107.1z M322.6-98.8c0,0.3-0.2,0.5-0.5,0.5h-11c-0.3,0-0.5-0.2-0.5-0.5v-6.9
		h1.8c-0.2,0.3-0.3,1-0.3,1.4c0,2.5,2,4.5,4.5,4.5c2.5,0,4.5-2,4.5-4.5c0-0.4-0.1-1-0.4-1.4h1.8V-98.8z"/>
	<path id="G_x2B__5_" fill="#21B573" d="M287.2-105.8c0.5,3.5-1,8.8-7,8.8c-4,0-7.3-3.3-7.3-7.3s3.3-7.3,7.3-7.3
		c1.9,0,3.6,0.7,4.9,1.9c-1.5,1.4-1.5,1.5-2.1,2.1c-0.8-0.6-1.6-1.1-2.8-1.1c-2.4,0-4.3,2-4.3,4.4s1.9,4.4,4.3,4.4
		c2.4,0,3.3-1,4-2.9c-1.1,0-4,0-4,0v-2.9H287.2z M293.4-105.6v-2.5h-1.8v2.5H289v1.8h2.6v2.6h1.8v-2.6h2.5v-1.8H293.4z"/>
	<path id="Twitter_2_" fill="#21B573" d="M258.3-110.7c-0.6,0.4-1.3,0.7-2.1,0.8c-0.6-0.7-1.5-1.1-2.4-1.1c-1.8,0-3.3,1.5-3.3,3.4
		c0,0.3,0,0.5,0.1,0.8c-2.7-0.1-5.1-1.5-6.8-3.5c-0.3,0.5-0.4,1.1-0.4,1.7c0,1.2,0.6,2.2,1.5,2.8c-0.5,0-1-0.2-1.5-0.4v0
		c0,1.6,1.1,3,2.6,3.3c-0.3,0.1-0.6,0.1-0.9,0.1c-0.2,0-0.4,0-0.6-0.1c0.4,1.3,1.6,2.3,3.1,2.3c-1.1,0.9-2.5,1.4-4.1,1.4
		c-0.3,0-0.5,0-0.8,0c1.5,1,3.2,1.5,5,1.5c6,0,9.3-5.1,9.3-9.6c0-0.1,0-0.3,0-0.4c0.6-0.5,1.2-1.1,1.6-1.7c-0.6,0.3-1.2,0.4-1.9,0.5
		C257.5-109.3,258.1-109.9,258.3-110.7z"/>
	<path id="Facebook_5_" fill="#21B573" d="M226-96.3v-7.3h2.4l0.4-2.8H226v-1.8c0-0.8,0.2-1.4,1.4-1.4l1.5,0v-2.5
		c-0.3,0-1.2-0.1-2.2-0.1c-2.2,0-3.7,1.3-3.7,3.8v2.1h-2.5v2.8h2.5v7.3H226z"/>
</g>
<g id="Magnify_2_">
	<path id="XMLID_998_" fill="#FFFFFF" d="M308.5-46c-0.3,0-0.5-0.1-0.7-0.3l-11.1-11.1c-2.2,1.9-5.2,3.1-8.3,3.1
		c-7.1,0-12.8-5.8-12.8-12.8S281.2-80,288.3-80c7.1,0,12.8,5.8,12.8,12.8c0,3.2-1.2,6.1-3.1,8.3l11.1,11.1c0.4,0.4,0.4,1,0,1.4
		C309-46.1,308.7-46,308.5-46z M288.3-78c-6,0-10.8,4.9-10.8,10.8s4.9,10.8,10.8,10.8s10.8-4.9,10.8-10.8S294.3-78,288.3-78z
		 M288.3-60.6c-0.6,0-1-0.4-1-1v-4.6h-4.6c-0.6,0-1-0.4-1-1s0.4-1,1-1h4.6v-4.6c0-0.6,0.4-1,1-1s1,0.4,1,1v4.6h4.6c0.6,0,1,0.4,1,1
		s-0.4,1-1,1h-4.6v4.6C289.3-61.1,288.8-60.6,288.3-60.6z"/>
</g>
<g id="Left_Arrow_4_">
	<path id="XMLID_1078_" fill="#FFFFFF" d="M231-71c9.4,0,17,7.6,17,17s-7.6,17-17,17s-17-7.6-17-17S221.6-71,231-71z M231-39
		c8.3,0,15-6.7,15-15s-6.7-15-15-15s-15,6.7-15,15S222.7-39,231-39z M227.5-59.2c0.3,0,0.5,0.1,0.7,0.3c0.4,0.4,0.4,1,0,1.4
		l-2.5,2.5h12.9c0.6,0,1,0.4,1,1s-0.4,1-1,1h-12.9l2.5,2.5c0.4,0.4,0.4,1,0,1.4s-1,0.4-1.4,0l-4.2-4.2c-0.1-0.1-0.2-0.2-0.2-0.3
		c0-0.1-0.1-0.2-0.1-0.4l0,0c0,0,0,0,0,0l0,0c0-0.1,0-0.3,0.1-0.4c0-0.1,0.1-0.2,0.2-0.3l4.2-4.2C227-59.1,227.2-59.2,227.5-59.2z"
		/>
</g>
<g id="Swirl_2_">
	<path id="XMLID_1076_" fill="none" stroke="#FFFFFF" stroke-width="2" stroke-linecap="round" stroke-linejoin="round" d="
		M200.3,100.7c0.1-6.2-4.9-11.3-11.1-11.4c-7.8-0.1-14.1,6.1-14.2,13.9c-0.1,9.7,7.7,17.6,17.4,17.7c12.1,0.1,22-9.6,22.2-21.7
		c0.2-15.1-12-27.6-27.1-27.7c-39-0.4-39.5,48.9-78.4,48.5c-15.1-0.2-27.3-12.6-27.1-27.7c0.1-12.1,10.1-21.8,22.2-21.7
		c9.7,0.1,17.5,8,17.4,17.7c-0.1,7.8-6.4,14-14.2,13.9C101,102.2,96,97.2,96,91"/>
	<path id="XMLID_1075_" fill="none" stroke="#FFFFFF" stroke-width="2" stroke-linecap="round" stroke-linejoin="round" d="
		M222,78.4c0-28.6,36.3-28.6,36.3-57.3c0-11.1-9-20.2-20.2-20.2C229.2,1,222,8.2,222,17.1C222,8.2,214.7,1,205.8,1
		c-11.1,0-20.2,9-20.2,20.2C185.7,49.8,222,49.8,222,78.4z"/>
	<path id="XMLID_1074_" fill="none" stroke="#FFFFFF" stroke-width="2" stroke-linecap="round" stroke-linejoin="round" d="
		M159,39.7c0-8.3-6.7-15-15-15c-10.3,0-18.7,8.4-18.7,18.7c0,12.9,10.5,23.4,23.4,23.4c16.2,0,29.2-13.1,29.2-29.2
		C178,17.4,161.6,1,141.4,1C89.5,1,89.5,66.8,37.6,66.8C17.4,66.8,1,50.4,1,30.2C1,14.1,14.1,1,30.2,1c12.9,0,23.4,10.5,23.4,23.4
		c0,10.3-8.4,18.7-18.7,18.7c-8.3,0-15-6.7-15-15"/>
	<path id="XMLID_1035_" fill="none" stroke="#FFFFFF" stroke-width="2" stroke-linecap="round" stroke-linejoin="round" d="
		M243.7,100.7c-0.1-6.2,4.9-11.3,11.1-11.4c7.8-0.1,14.1,6.1,14.2,13.9c0.1,9.7-7.7,17.6-17.4,17.7c-12.1,0.1-22-9.6-22.2-21.7
		c-0.2-15.1,12-27.6,27.1-27.7c39-0.4,39.5,48.9,78.4,48.5c15.1-0.2,27.3-12.6,27.1-27.7c-0.1-12.1-10.1-21.8-22.2-21.7
		c-9.7,0.1-17.5,8-17.4,17.7c0.1,7.8,6.4,14,14.2,13.9c6.2-0.1,11.2-5.2,11.1-11.4"/>
	<path id="XMLID_1034_" fill="none" stroke="#FFFFFF" stroke-width="2" stroke-linecap="round" stroke-linejoin="round" d="
		M284.9,39.7c0-8.3,6.7-15,15-15c10.3,0,18.7,8.4,18.7,18.7c0,12.9-10.5,23.4-23.4,23.4c-16.2,0-29.2-13.1-29.2-29.2
		c0-20.2,16.4-36.6,36.6-36.6c51.9,0,51.9,65.8,103.9,65.8c20.2,0,36.6-16.4,36.6-36.6c0-16.2-13.1-29.2-29.2-29.2
		c-12.9,0-23.4,10.5-23.4,23.4c0,10.3,8.4,18.7,18.7,18.7c8.3,0,15-6.7,15-15"/>
</g>
</svg>
